<svg width="19" height="20" viewBox="0 0 19 20" fill="none" xmlns="http://www.w3.org/2000/svg">
<path d="M6.53145 18.4016V14.3047L3.47363 16.5609C4.33457 17.3625 5.37363 17.9859 6.53145 18.4016Z" fill="#2A5F9E"/>
<path d="M12.4688 18.4015C13.6266 17.9858 14.6656 17.3624 15.5266 16.5608L12.4688 14.2749V18.4015Z" fill="#2A5F9E"/>
<path d="M1.09863 12.9688C1.1877 13.2656 1.30645 13.5328 1.45488 13.8297L2.6127 12.9688H1.09863Z" fill="#2A5F9E"/>
<path d="M16.3877 12.9688L17.5455 13.8297C17.6643 13.5625 17.783 13.2656 17.9018 12.9688H16.3877Z" fill="#2A5F9E"/>
<path d="M6.97666 11.7812H0.771973C0.861035 12.1969 0.979785 12.5828 1.09854 12.9688H2.6126L1.45479 13.8297C1.69229 14.3344 1.95947 14.7797 2.28604 15.225L5.34385 12.9688H6.53135V13.5625L3.05791 16.1156L3.47354 16.5313L6.53135 14.3047V18.4016C6.91728 18.55 7.30322 18.6391 7.71885 18.7281V11.7812H6.97666Z" fill="white"/>
<path d="M18.2281 11.7812H11.2812V18.7281C11.6969 18.6391 12.0828 18.5203 12.4688 18.4016V14.3047L15.5266 16.5313C15.9422 16.1453 16.2984 15.7297 16.6547 15.2844L13.4781 12.9688H15.4969L17.3078 14.3047C17.3969 14.1563 17.4859 13.9781 17.5453 13.8297L16.3875 12.9688H17.9016C18.0203 12.5828 18.1391 12.1969 18.2281 11.7812Z" fill="white"/>
<path d="M2.28613 15.2251C2.52363 15.5517 2.76113 15.8485 3.02832 16.1454L6.53145 13.5923V12.9985H5.34395L2.28613 15.2251Z" fill="#ED4C5C"/>
<path d="M13.5078 12.9688L16.6844 15.2844C16.8031 15.1359 16.8922 14.9875 17.0109 14.8391C17.0406 14.8094 17.0406 14.7797 17.0703 14.7797C17.1594 14.6312 17.2781 14.4531 17.3672 14.3047L15.4969 12.9688H13.5078Z" fill="#ED4C5C"/>
<path d="M12.4688 1.59863V5.69551L15.5266 3.43926C14.6656 2.6377 13.6266 2.01426 12.4688 1.59863Z" fill="#2A5F9E"/>
<path d="M6.53145 1.59863C5.37363 2.01426 4.33457 2.6377 3.47363 3.43926L6.53145 5.72519V1.59863Z" fill="#2A5F9E"/>
<path d="M17.9018 7.03135C17.8127 6.73447 17.6939 6.46729 17.5455 6.17041L16.3877 7.03135H17.9018Z" fill="#2A5F9E"/>
<path d="M2.6127 7.03135L1.45488 6.17041C1.33613 6.46729 1.21738 6.73447 1.09863 7.03135H2.6127Z" fill="#2A5F9E"/>
<path d="M12.0234 8.21885H18.1984C18.1094 7.80322 17.9906 7.41728 17.8719 7.03135H16.3578L17.5156 6.17041C17.2781 5.66572 17.0109 5.22041 16.6844 4.7751L13.6563 7.03135H12.4688V6.4376L15.9422 3.88447L15.5266 3.46885L12.4688 5.69541V1.59854C12.0828 1.4501 11.6969 1.36104 11.2812 1.27197V8.21885H12.0234Z" fill="white"/>
<path d="M0.771973 8.21885H7.71885V1.27197C7.30322 1.36104 6.91728 1.47979 6.53135 1.59854V5.69541L3.47354 3.46885C3.05791 3.85479 2.70166 4.27041 2.34541 4.71572L5.52197 7.03135H3.50322L1.69229 5.69541C1.60322 5.84385 1.51416 6.02197 1.45479 6.17041L2.6126 7.03135H1.09854C0.979785 7.41728 0.861035 7.80322 0.771973 8.21885Z" fill="white"/>
<path d="M16.7141 4.7748C16.4766 4.44824 16.2391 4.15137 15.9719 3.85449L12.4688 6.40762V7.00137H13.6562L16.7141 4.7748Z" fill="#ED4C5C"/>
<path d="M5.49228 7.03145L2.34541 4.71582C2.22666 4.86426 2.1376 5.0127 2.01885 5.16113C1.98916 5.19082 1.98916 5.22051 1.95947 5.22051C1.87041 5.36895 1.75166 5.54707 1.6626 5.69551L3.47353 7.03145H5.49228Z" fill="#ED4C5C"/>
<path d="M18.2281 8.21875H11.2812V1.27187C10.7172 1.15312 10.1234 1.09375 9.5 1.09375C8.87656 1.09375 8.28281 1.15312 7.71875 1.27187V8.21875H0.771875C0.653125 8.78281 0.59375 9.37656 0.59375 10C0.59375 10.6234 0.653125 11.2172 0.771875 11.7812H7.71875V18.7281C8.28281 18.8469 8.87656 18.9062 9.5 18.9062C10.1234 18.9062 10.7172 18.8469 11.2812 18.7281V11.7812H18.2281C18.3469 11.2172 18.4062 10.6234 18.4062 10C18.4062 9.37656 18.3469 8.78281 18.2281 8.21875Z" fill="#ED4C5C"/>
</svg>
