<svg width="20" height="20" viewBox="0 0 20 20" fill="none" xmlns="http://www.w3.org/2000/svg">
<mask id="mask0_1001_653" style="mask-type:alpha" maskUnits="userSpaceOnUse" x="3" y="3" width="13" height="13">
<rect x="4.30933" y="4.30957" width="10.4286" height="10.4286" fill="#C4C4C4" stroke="#C4C4C4"/>
</mask>
<g mask="url(#mask0_1001_653)">
<path d="M11.2757 14.4554L11.2758 14.4553C11.6998 14.2626 12.0584 14.008 12.3569 13.6923L12.357 13.6921C12.6588 13.3731 12.893 13.0077 13.0603 12.5926L13.0604 12.5925C13.2269 12.1797 13.3098 11.7532 13.3098 11.3096V8.21433C13.3098 8.17649 13.3024 8.16401 13.2838 8.1455C13.2647 8.12639 13.252 8.11909 13.2145 8.11909C13.1771 8.11909 13.1648 8.12635 13.1462 8.14502L13.1452 8.14599C13.1266 8.1646 13.1193 8.17693 13.1193 8.21433V10.9524V11.4524H12.6193H12.3812C12.1155 11.4524 11.9058 11.5397 11.7229 11.7226C11.5399 11.9056 11.4526 12.1153 11.4526 12.381V12.881H10.9526H10.4764H9.97645V12.381C9.97645 11.7856 10.1738 11.2515 10.5612 10.7998C10.8571 10.4545 11.2217 10.2164 11.6431 10.0861V5.35719C11.6431 5.31965 11.6358 5.30664 11.6172 5.28789C11.5984 5.26929 11.5854 5.26195 11.5479 5.26195C11.51 5.26195 11.4976 5.26938 11.479 5.28789C11.4599 5.307 11.4526 5.31976 11.4526 5.35719V9.04767V9.54767H10.9526H10.4764H9.97645V9.04767V4.40481C9.97645 4.36738 9.96915 4.35462 9.95004 4.3355C9.93153 4.317 9.91905 4.30957 9.88121 4.30957C9.84336 4.30957 9.83089 4.317 9.81238 4.3355C9.79327 4.35462 9.78597 4.36738 9.78597 4.40481V9.04767V9.54767H9.28597H8.80978H8.30978V9.04767V5.11909C8.30978 5.08167 8.30248 5.0689 8.28337 5.04979C8.26486 5.03128 8.25239 5.02386 8.21454 5.02386C8.1767 5.02386 8.16422 5.03128 8.14571 5.04979C8.1266 5.0689 8.1193 5.08167 8.1193 5.11909V9.52386V10.0239H7.6193H7.14311H6.64311V9.52386V6.54767C6.64311 6.51012 6.63578 6.4971 6.61717 6.47835C6.59843 6.45976 6.58541 6.45243 6.54787 6.45243C6.51003 6.45243 6.49756 6.45985 6.47905 6.47836C6.45993 6.49748 6.45264 6.51024 6.45264 6.54767V11.3096C6.45264 11.7518 6.537 12.1797 6.70738 12.5966L6.70749 12.5969C6.87827 13.0154 7.11532 13.3799 7.41913 13.6943L11.2757 14.4554ZM11.2757 14.4554C10.8665 14.6414 10.4081 14.7381 9.89311 14.7381C9.37808 14.7381 8.91994 14.6414 8.51115 14.4554L8.51079 14.4553M11.2757 14.4554L8.51079 14.4553M8.51079 14.4553C8.0848 14.2618 7.72262 14.0079 7.41928 13.6945L8.51079 14.4553Z" fill="white" stroke="#C4C4C4"/>
</g>
<circle cx="10" cy="10" r="9.5" stroke="#C4C4C4"/>
</svg>
